<mxfile host="app.diagrams.net" modified="2023-09-28T06:01:46.457Z" agent="Mozilla/5.0 (Macintosh; Intel Mac OS X 10_15_7) AppleWebKit/605.1.15 (KHTML, like Gecko) Version/16.6 Safari/605.1.15" etag="tfAzjAS31Q7Zs1NCCbYH" version="21.8.2" type="github">
  <diagram name="第 1 页" id="zmZR6i9L2U6j5WBqls_v">
    <mxGraphModel dx="984" dy="667" grid="1" gridSize="10" guides="1" tooltips="1" connect="1" arrows="1" fold="1" page="1" pageScale="1" pageWidth="827" pageHeight="1169" math="1" shadow="0">
      <root>
        <mxCell id="0" />
        <mxCell id="1" parent="0" />
        <mxCell id="_z6BsKYSzLqCspBrWVtD-2" value="A1" style="whiteSpace=wrap;html=1;align=center;fontStyle=4" parent="1" vertex="1">
          <mxGeometry x="190" y="60" width="100" height="40" as="geometry" />
        </mxCell>
        <mxCell id="_z6BsKYSzLqCspBrWVtD-5" value="A2" style="whiteSpace=wrap;html=1;align=center;" parent="1" vertex="1">
          <mxGeometry x="290" y="60" width="100" height="40" as="geometry" />
        </mxCell>
        <mxCell id="X7fVIaBAJAOIt593yA5P-2" value="A3" style="whiteSpace=wrap;html=1;align=center;fontStyle=4" vertex="1" parent="1">
          <mxGeometry x="190" y="150" width="100" height="40" as="geometry" />
        </mxCell>
        <mxCell id="X7fVIaBAJAOIt593yA5P-3" value="A4" style="whiteSpace=wrap;html=1;align=center;" vertex="1" parent="1">
          <mxGeometry x="290" y="150" width="100" height="40" as="geometry" />
        </mxCell>
        <mxCell id="X7fVIaBAJAOIt593yA5P-4" value="A5" style="whiteSpace=wrap;html=1;align=center;" vertex="1" parent="1">
          <mxGeometry x="390" y="150" width="100" height="40" as="geometry" />
        </mxCell>
        <mxCell id="X7fVIaBAJAOIt593yA5P-6" value="A6" style="whiteSpace=wrap;html=1;align=center;fontStyle=4" vertex="1" parent="1">
          <mxGeometry x="190" y="240" width="100" height="40" as="geometry" />
        </mxCell>
        <mxCell id="X7fVIaBAJAOIt593yA5P-8" value="A7" style="whiteSpace=wrap;html=1;align=center;" vertex="1" parent="1">
          <mxGeometry x="290" y="240" width="100" height="40" as="geometry" />
        </mxCell>
        <mxCell id="X7fVIaBAJAOIt593yA5P-10" value="A8" style="whiteSpace=wrap;html=1;align=center;fontStyle=4" vertex="1" parent="1">
          <mxGeometry x="190" y="340" width="100" height="40" as="geometry" />
        </mxCell>
        <mxCell id="X7fVIaBAJAOIt593yA5P-11" value="A9" style="whiteSpace=wrap;html=1;align=center;" vertex="1" parent="1">
          <mxGeometry x="290" y="340" width="100" height="40" as="geometry" />
        </mxCell>
        <mxCell id="X7fVIaBAJAOIt593yA5P-43" style="edgeStyle=orthogonalEdgeStyle;rounded=0;orthogonalLoop=1;jettySize=auto;html=1;exitX=0;exitY=0.5;exitDx=0;exitDy=0;entryX=0;entryY=0.75;entryDx=0;entryDy=0;" edge="1" parent="1" source="X7fVIaBAJAOIt593yA5P-13" target="X7fVIaBAJAOIt593yA5P-10">
          <mxGeometry relative="1" as="geometry">
            <mxPoint x="150" y="370" as="targetPoint" />
            <Array as="points">
              <mxPoint x="160" y="450" />
              <mxPoint x="160" y="370" />
            </Array>
          </mxGeometry>
        </mxCell>
        <mxCell id="X7fVIaBAJAOIt593yA5P-13" value="A8" style="whiteSpace=wrap;html=1;align=center;fontStyle=4" vertex="1" parent="1">
          <mxGeometry x="190" y="430" width="100" height="40" as="geometry" />
        </mxCell>
        <mxCell id="X7fVIaBAJAOIt593yA5P-14" value="A10" style="whiteSpace=wrap;html=1;align=center;fontStyle=4" vertex="1" parent="1">
          <mxGeometry x="290" y="430" width="100" height="40" as="geometry" />
        </mxCell>
        <mxCell id="X7fVIaBAJAOIt593yA5P-16" value="A12" style="whiteSpace=wrap;html=1;align=center;fontStyle=4" vertex="1" parent="1">
          <mxGeometry x="190" y="530" width="100" height="40" as="geometry" />
        </mxCell>
        <mxCell id="X7fVIaBAJAOIt593yA5P-17" value="A13" style="whiteSpace=wrap;html=1;align=center;" vertex="1" parent="1">
          <mxGeometry x="290" y="530" width="100" height="40" as="geometry" />
        </mxCell>
        <mxCell id="X7fVIaBAJAOIt593yA5P-19" value="A11" style="whiteSpace=wrap;html=1;align=center;" vertex="1" parent="1">
          <mxGeometry x="390" y="430" width="100" height="40" as="geometry" />
        </mxCell>
        <mxCell id="X7fVIaBAJAOIt593yA5P-20" value="E1" style="text;strokeColor=none;align=center;fillColor=none;html=1;verticalAlign=middle;whiteSpace=wrap;rounded=0;" vertex="1" parent="1">
          <mxGeometry x="190" y="30" width="60" height="30" as="geometry" />
        </mxCell>
        <mxCell id="X7fVIaBAJAOIt593yA5P-21" value="E2" style="text;strokeColor=none;align=center;fillColor=none;html=1;verticalAlign=middle;whiteSpace=wrap;rounded=0;" vertex="1" parent="1">
          <mxGeometry x="190" y="120" width="60" height="30" as="geometry" />
        </mxCell>
        <mxCell id="X7fVIaBAJAOIt593yA5P-22" value="E3" style="text;strokeColor=none;align=center;fillColor=none;html=1;verticalAlign=middle;whiteSpace=wrap;rounded=0;" vertex="1" parent="1">
          <mxGeometry x="190" y="210" width="60" height="30" as="geometry" />
        </mxCell>
        <mxCell id="X7fVIaBAJAOIt593yA5P-23" value="E4" style="text;strokeColor=none;align=center;fillColor=none;html=1;verticalAlign=middle;whiteSpace=wrap;rounded=0;" vertex="1" parent="1">
          <mxGeometry x="190" y="310" width="60" height="30" as="geometry" />
        </mxCell>
        <mxCell id="X7fVIaBAJAOIt593yA5P-24" value="E5" style="text;strokeColor=none;align=center;fillColor=none;html=1;verticalAlign=middle;whiteSpace=wrap;rounded=0;" vertex="1" parent="1">
          <mxGeometry x="190" y="400" width="60" height="30" as="geometry" />
        </mxCell>
        <mxCell id="X7fVIaBAJAOIt593yA5P-25" value="E6" style="text;strokeColor=none;align=center;fillColor=none;html=1;verticalAlign=middle;whiteSpace=wrap;rounded=0;" vertex="1" parent="1">
          <mxGeometry x="190" y="500" width="60" height="30" as="geometry" />
        </mxCell>
        <mxCell id="X7fVIaBAJAOIt593yA5P-26" value="R2" style="text;strokeColor=none;align=center;fillColor=none;html=1;verticalAlign=middle;whiteSpace=wrap;rounded=0;" vertex="1" parent="1">
          <mxGeometry x="190" y="590" width="60" height="30" as="geometry" />
        </mxCell>
        <mxCell id="X7fVIaBAJAOIt593yA5P-38" style="edgeStyle=orthogonalEdgeStyle;rounded=0;orthogonalLoop=1;jettySize=auto;html=1;exitX=0;exitY=0.5;exitDx=0;exitDy=0;entryX=0;entryY=0.5;entryDx=0;entryDy=0;" edge="1" parent="1" source="X7fVIaBAJAOIt593yA5P-27" target="_z6BsKYSzLqCspBrWVtD-2">
          <mxGeometry relative="1" as="geometry">
            <mxPoint x="140" y="80" as="targetPoint" />
            <Array as="points">
              <mxPoint x="141" y="640" />
              <mxPoint x="141" y="80" />
            </Array>
          </mxGeometry>
        </mxCell>
        <mxCell id="X7fVIaBAJAOIt593yA5P-27" value="A1" style="whiteSpace=wrap;html=1;align=center;fontStyle=4" vertex="1" parent="1">
          <mxGeometry x="190" y="620" width="100" height="40" as="geometry" />
        </mxCell>
        <mxCell id="X7fVIaBAJAOIt593yA5P-44" style="edgeStyle=orthogonalEdgeStyle;rounded=0;orthogonalLoop=1;jettySize=auto;html=1;exitX=0.5;exitY=0;exitDx=0;exitDy=0;entryX=0.5;entryY=1;entryDx=0;entryDy=0;" edge="1" parent="1" source="X7fVIaBAJAOIt593yA5P-28" target="X7fVIaBAJAOIt593yA5P-6">
          <mxGeometry relative="1" as="geometry">
            <mxPoint x="240" y="300" as="targetPoint" />
            <Array as="points">
              <mxPoint x="340" y="596" />
              <mxPoint x="611" y="596" />
              <mxPoint x="611" y="310" />
              <mxPoint x="240" y="310" />
            </Array>
          </mxGeometry>
        </mxCell>
        <mxCell id="X7fVIaBAJAOIt593yA5P-28" value="A6" style="whiteSpace=wrap;html=1;align=center;fontStyle=4" vertex="1" parent="1">
          <mxGeometry x="290" y="620" width="100" height="40" as="geometry" />
        </mxCell>
        <mxCell id="X7fVIaBAJAOIt593yA5P-45" style="edgeStyle=orthogonalEdgeStyle;rounded=0;orthogonalLoop=1;jettySize=auto;html=1;exitX=0.5;exitY=0;exitDx=0;exitDy=0;entryX=0.69;entryY=1.05;entryDx=0;entryDy=0;entryPerimeter=0;" edge="1" parent="1" source="X7fVIaBAJAOIt593yA5P-30" target="X7fVIaBAJAOIt593yA5P-10">
          <mxGeometry relative="1" as="geometry">
            <mxPoint x="260" y="400" as="targetPoint" />
            <Array as="points">
              <mxPoint x="440" y="610" />
              <mxPoint x="551" y="610" />
              <mxPoint x="551" y="400" />
              <mxPoint x="259" y="400" />
            </Array>
          </mxGeometry>
        </mxCell>
        <mxCell id="X7fVIaBAJAOIt593yA5P-30" value="A8" style="whiteSpace=wrap;html=1;align=center;fontStyle=4" vertex="1" parent="1">
          <mxGeometry x="390" y="620" width="100" height="40" as="geometry" />
        </mxCell>
        <mxCell id="X7fVIaBAJAOIt593yA5P-40" style="edgeStyle=orthogonalEdgeStyle;rounded=0;orthogonalLoop=1;jettySize=auto;html=1;exitX=0;exitY=0.5;exitDx=0;exitDy=0;entryX=0;entryY=0.75;entryDx=0;entryDy=0;" edge="1" parent="1" source="X7fVIaBAJAOIt593yA5P-33" target="_z6BsKYSzLqCspBrWVtD-2">
          <mxGeometry relative="1" as="geometry">
            <mxPoint x="160" y="90" as="targetPoint" />
          </mxGeometry>
        </mxCell>
        <mxCell id="X7fVIaBAJAOIt593yA5P-33" value="A1" style="whiteSpace=wrap;html=1;align=center;fontStyle=4" vertex="1" parent="1">
          <mxGeometry x="190" y="710" width="100" height="40" as="geometry" />
        </mxCell>
        <mxCell id="X7fVIaBAJAOIt593yA5P-42" style="edgeStyle=orthogonalEdgeStyle;rounded=0;orthogonalLoop=1;jettySize=auto;html=1;exitX=0.25;exitY=1;exitDx=0;exitDy=0;entryX=0;entryY=0.5;entryDx=0;entryDy=0;" edge="1" parent="1" target="X7fVIaBAJAOIt593yA5P-16">
          <mxGeometry relative="1" as="geometry">
            <mxPoint x="181" y="550" as="targetPoint" />
            <mxPoint x="306" y="750" as="sourcePoint" />
            <Array as="points">
              <mxPoint x="306" y="760" />
              <mxPoint x="160" y="760" />
              <mxPoint x="160" y="550" />
            </Array>
          </mxGeometry>
        </mxCell>
        <mxCell id="X7fVIaBAJAOIt593yA5P-34" value="A12" style="whiteSpace=wrap;html=1;align=center;fontStyle=4" vertex="1" parent="1">
          <mxGeometry x="290" y="710" width="100" height="40" as="geometry" />
        </mxCell>
        <mxCell id="X7fVIaBAJAOIt593yA5P-35" value="R5" style="text;strokeColor=none;align=center;fillColor=none;html=1;verticalAlign=middle;whiteSpace=wrap;rounded=0;" vertex="1" parent="1">
          <mxGeometry x="190" y="680" width="60" height="30" as="geometry" />
        </mxCell>
        <mxCell id="X7fVIaBAJAOIt593yA5P-46" value="A14" style="whiteSpace=wrap;html=1;align=center;" vertex="1" parent="1">
          <mxGeometry x="390" y="340" width="100" height="40" as="geometry" />
        </mxCell>
        <mxCell id="X7fVIaBAJAOIt593yA5P-47" value="A14" style="whiteSpace=wrap;html=1;align=center;" vertex="1" parent="1">
          <mxGeometry x="390" y="530" width="100" height="40" as="geometry" />
        </mxCell>
        <mxCell id="X7fVIaBAJAOIt593yA5P-49" style="edgeStyle=orthogonalEdgeStyle;rounded=0;orthogonalLoop=1;jettySize=auto;html=1;exitX=0.25;exitY=0;exitDx=0;exitDy=0;entryX=0.75;entryY=1;entryDx=0;entryDy=0;" edge="1" parent="1" source="X7fVIaBAJAOIt593yA5P-48" target="_z6BsKYSzLqCspBrWVtD-2">
          <mxGeometry relative="1" as="geometry">
            <mxPoint x="515" y="120" as="targetPoint" />
          </mxGeometry>
        </mxCell>
        <mxCell id="X7fVIaBAJAOIt593yA5P-48" value="A1" style="whiteSpace=wrap;html=1;align=center;" vertex="1" parent="1">
          <mxGeometry x="490" y="150" width="100" height="40" as="geometry" />
        </mxCell>
      </root>
    </mxGraphModel>
  </diagram>
</mxfile>
